:FULLY-SPECIFIED
:FORCE-ALL-JOINTS-BE-3DOF
:DEGREES
816
root -4.44283 14.7364 -40.2347 45.5702 -79.2267 -36.424
lfemur -70.0732 12.364 -21.2338
ltibia 74.9 -0 0
lfoot -8.29275 5.91923 -0.432852
ltoes -15.8163 0 0
rfemur -30.3371 -2.03518 24.3546
rtibia 71.7466 -0 0
rfoot -32.514 -27.7149 -0.0147905
rtoes -27.0501 0 0
lowerback 18.072 1.17421 3.47229
upperback 0.788642 2.40731 2.48952
thorax -9.25602 1.01566 0.142216
lowerneck -1.62085 13.2053 4.41033
upperneck -2.43977 17.5356 -10.151
head 0.876693 8.75751 -3.5648
lclavicle -2.64384e-14 1.59028e-15 0
lhumerus 103.021 -32.9479 23.1343
lradius 87.3446 -0 0
lwrist 25.7039 0 0
lhand -8.04708 23.7997 0.0835625
lfingers 7.12502 -0 0
lthumb 17.8658 53.0522 0.0874388
rclavicle -2.64384e-14 1.59028e-15 0
rhumerus 20.6538 26.3397 -62.5249
rradius 57.7576 -0 0
rwrist -16.5824 0 0
rhand -16.384 -45.2234 -0.824806
rfingers 7.12502 -0 0
rthumb 9.86919 -75.247 -0.88996
817
root -4.27594 14.7463 -40.2837 40.6302 -78.2105 -31.4013
lfemur -70.6017 14.006 -22.3916
ltibia 78.0238 -0 0
lfoot -8.52939 6.64154 -0.350557
ltoes -16.0772 0 0
rfemur -30.9856 -3.69236 24.1947
rtibia 71.758 -0 0
rfoot -32.7774 -27.602 -0.00805162
rtoes -25.8186 0 0
lowerback 18.0974 1.09156 3.41237
upperback 0.725028 2.2948 2.52008
thorax -9.34877 0.96485 0.232729
lowerneck -1.73583 13.1455 4.35279
upperneck -2.30131 17.4651 -10.1503
head 0.936907 8.71696 -3.55107
lclavicle -2.64384e-14 1.59028e-15 0
lhumerus 103.595 -33.1275 22.6343
lradius 89.9976 -0 0
lwrist 23.6769 0 0
lhand -8.50703 23.6063 0.0586406
lfingers 7.12502 -0 0
lthumb 17.4223 52.8778 0.0608619
rclavicle -2.64384e-14 1.59028e-15 0
rhumerus 21.8562 28.9862 -61.3465
rradius 59.279 -0 0
rwrist -15.3779 0 0
rhand -15.8859 -44.4376 -0.663174
rfingers 7.12502 -0 0
rthumb 10.3407 -74.3787 -0.712814
818
root -4.10905 14.7562 -40.3327 35.6405 -76.8522 -26.3358
lfemur -70.9609 15.7488 -23.3822
ltibia 81.0056 -0 0
lfoot -8.63616 7.48427 -0.249886
ltoes -16.2092 0 0
rfemur -31.7441 -5.45949 24.0622
rtibia 71.7739 -0 0
rfoot -33.0126 -27.5188 -0.00283311
rtoes -24.537 0 0
lowerback 18.1339 1.01549 3.35699
upperback 0.654041 2.19273 2.54133
thorax -9.45506 0.918529 0.307156
lowerneck -1.86662 13.0844 4.30843
upperneck -2.12447 17.3951 -10.1567
head 1.01362 8.67555 -3.5395
lclavicle -2.64384e-14 1.59028e-15 0
lhumerus 104.184 -33.4318 21.6763
lradius 93.2937 -0 0
lwrist 21.7853 0 0
lhand -8.9266 23.4356 0.0353693
lfingers 7.12502 -0 0
lthumb 17.0178 52.7263 0.0363777
rclavicle -2.64384e-14 1.59028e-15 0
rhumerus 23.5585 31.9908 -59.7453
rradius 60.9617 -0 0
rwrist -13.7754 0 0
rhand -15.2662 -43.4604 -0.469114
rfingers 7.12502 -0 0
rthumb 10.9288 -73.3045 -0.502439
819
root -3.94216 14.7661 -40.3817 30.8515 -75.0898 -21.4771
lfemur -71.1201 17.6013 -24.1788
ltibia 83.8181 -0 0
lfoot -8.59975 8.46117 -0.132134
ltoes -16.1875 0 0
rfemur -32.6347 -7.33903 23.9741
rtibia 71.7963 -0 0
rfoot -33.2186 -27.4726 0.000104828
rtoes -23.2062 0 0
lowerback 18.1846 0.946576 3.3077
upperback 0.575851 2.10223 2.5515
thorax -9.57614 0.877069 0.362293
lowerneck -2.01362 13.0247 4.28003
upperneck -1.90767 17.3293 -10.1751
head 1.10819 8.63506 -3.53172
lclavicle -2.64384e-14 1.59028e-15 0
lhumerus 104.835 -33.8715 20.1586
lradius 97.3258 -0 0
lwrist 20.0922 0 0
lhand -9.28995 23.2878 0.0152982
lfingers 7.12502 -0 0
lthumb 16.6676 52.5973 0.0155625
rclavicle -2.64384e-14 1.59028e-15 0
rhumerus 25.9407 35.3473 -57.5717
rradius 62.7998 -0 0
rwrist -11.724 0 0
rhand -14.5228 -42.2766 -0.246269
rfingers 7.12502 -0 0
rthumb 11.6354 -72.0098 -0.262899
820
root -3.77527 14.776 -40.4307 386.453 -72.8675 342.986
lfemur -71.045 19.571 -24.7501
ltibia 86.4337 0 0
lfoot -8.40667 9.58613 0
ltoes -15.9996 0 0
rfemur -33.6815 -9.33276 23.9497
rtibia 71.8282 0 0
rfoot -33.3942 -27.4709 0
rtoes -21.8273 0 0
lowerback 18.2522 0.885413 3.26605
upperback 0.490623 2.02441 2.54879
thorax -9.71323 0.840823 0.394933
lowerneck -2.17725 12.9692 4.27036
upperneck -1.64931 17.2716 -10.2103
head 1.222 8.59733 -3.52939
lclavicle -2.64384e-14 1.59028e-15 0
lhumerus 105.599 -34.4529 17.9737
lradius 102.187 0 0
lwrist 18.6607 0 0
lhand -9.58125 23.1628 0
lfingers 7.12502 0 0
lthumb 16.3869 52.4906 0
rclavicle -2.64384e-14 1.59028e-15 0
rhumerus 29.247 39.0203 -54.6099
rradius 64.7872 0 0
rwrist -9.17263 0 0
rhand -13.6536 -40.8712 0
rfingers 7.12502 0 0
rthumb 12.4631 -70.4795 0
821
root -3.69539 14.7862 -40.4053 23.1225 -70.6245 -13.6174
lfemur -70.7913 21.4427 -25.0522
ltibia 88.6729 -0 0
lfoot -8.10675 10.7307 0.1294
ltoes -15.6636 0 0
rfemur -34.7808 -11.223 23.9865
rtibia 71.8794 -0 0
rfoot -33.532 -27.4882 -0.00142238
rtoes -20.5442 0 0
lowerback 18.3274 0.838731 3.23768
upperback 0.406915 1.96832 2.54001
thorax -9.85144 0.81405 0.407833
lowerneck -2.33417 12.9202 4.28326
upperneck -1.38635 17.2227 -10.2592
head 1.33884 8.56397 -3.53405
lclavicle 3.97569e-15 -1.35174e-14 0
lhumerus 106.561 -35.0231 15.4586
lradius 107.342 -0 0
lwrist 17.5119 0 0
lhand -9.72944 23.0497 0.000483733
lfingers 7.12502 -0 0
lthumb 16.2443 52.3946 0.000197124
rclavicle 3.97569e-15 -1.35174e-14 0
rhumerus 33.404 42.487 -50.9446
rradius 66.674 -0 0
rwrist -6.2943 0 0
rhand -12.6827 -39.4181 0.240786
rfingers 7.12502 -0 0
rthumb 13.3896 -68.8918 0.256995
822
root -3.61552 14.7964 -40.3798 20.9533 -68.8335 -11.3775
lfemur -70.4301 23.0122 -25.0692
ltibia 90.3932 -0 0
lfoot -7.75959 11.7604 0.24151
ltoes -15.216 0 0
rfemur -35.8077 -12.807 24.0562
rtibia 71.954 -0 0
rfoot -33.6253 -27.4952 -0.00197712
rtoes -19.4888 0 0
lowerback 18.3981 0.811928 3.22571
upperback 0.332512 1.94071 2.53281
thorax -9.97548 0.800106 0.406754
lowerneck -2.46309 12.877 4.31845
upperneck -1.15383 17.1792 -10.3127
head 1.44256 8.53459 -3.54497
lclavicle 3.97569e-15 -1.35174e-14 0
lhumerus 107.71 -35.4345 13.0454
lradius 112.184 -0 0
lwrist 16.6034 0 0
lhand -9.69354 22.9411 0.0245193
lfingers 7.12502 -0 0
lthumb 16.2793 52.3014 0.0234111
rclavicle 3.97569e-15 -1.35174e-14 0
rhumerus 38.0552 45.2737 -46.8983
rradius 68.2414 -0 0
rwrist -3.32432 0 0
rhand -11.6436 -38.0932 0.451934
rfingers 7.12502 -0 0
rthumb 14.3831 -67.4274 0.483486
823
root -3.53564 14.8066 -40.3544 19.4901 -67.4719 -9.84301
lfemur -69.9501 24.301 -24.8101
ltibia 91.6228 -0 0
lfoot -7.36615 12.6801 0.336387
ltoes -14.6693 0 0
rfemur -36.7557 -14.1084 24.1428
rtibia 72.0462 -0 0
rfoot -33.6739 -27.4931 -0.00174566
rtoes -18.6438 0 0
lowerback 18.4634 0.803587 3.22797
upperback 0.266424 1.93933 2.52671
thorax -10.086 0.797976 0.393002
lowerneck -2.56744 12.8378 4.37253
upperneck -0.947235 17.1391 -10.3671
head 1.53456 8.50795 -3.56034
lclavicle 3.97569e-15 -1.35174e-14 0
lhumerus 108.968 -35.7008 10.765
lradius 116.697 -0 0
lwrist 15.9028 0 0
lhand -9.50285 22.8422 0.0686994
lfingers 7.12502 -0 0
lthumb 16.4636 52.2168 0.0662466
rclavicle 3.97569e-15 -1.35174e-14 0
rhumerus 43.0491 47.3997 -42.5843
rradius 69.53 -0 0
rwrist -0.305256 0 0
rhand -10.5481 -36.8843 0.634187
rfingers 7.12502 -0 0
rthumb 15.4322 -66.0751 0.679679
824
root -3.45577 14.8168 -40.329 18.4898 -66.5013 -8.77486
lfemur -69.3454 25.3296 -24.2866
ltibia 92.3898 -0 0
lfoot -6.9273 13.4948 0.414315
ltoes -14.0358 0 0
rfemur -37.6169 -15.1513 24.2316
rtibia 72.1498 -0 0
rfoot -33.6781 -27.4832 -0.000833787
rtoes -17.992 0 0
lowerback 18.5223 0.812297 3.24224
upperback 0.207666 1.96188 2.52123
thorax -10.1837 0.806662 0.367895
lowerneck -2.65066 12.8008 4.44209
upperneck -0.762087 17.1002 -10.4186
head 1.61626 8.48279 -3.57836
lclavicle 3.97569e-15 -1.35174e-14 0
lhumerus 110.258 -35.8421 8.64752
lradius 120.867 -0 0
lwrist 15.3775 0 0
lhand -9.18664 22.7587 0.129413
lfingers 7.12502 -0 0
lthumb 16.7691 52.1464 0.125136
rclavicle 3.97569e-15 -1.35174e-14 0
rhumerus 48.193 48.9065 -38.159
rradius 70.5804 -0 0
rwrist 2.72031 0 0
rhand -9.40713 -35.7794 0.788657
rfingers 7.12502 -0 0
rthumb 16.5261 -64.824 0.846226
